# xmcd CD database file
#
# Track frame offsets:
#	150
#	21808
#	36415
#	49573
#	61155
#	72763
#	86190
#	100303
#	113940
#	127465
#	141488
#	159255
#	169675
#	182485
#	194708
#	209320
#	225023
#	241878
#	255238
#	268195
#
# Disc length: 3766 seconds
#
# Revision: 1
# Processed by: cddbd v1.5.2PL0 Copyright (c) Steve Scherf et al.
# Submitted via: CDex 1.51
#
DISCID=1b0eb414
DTITLE=Vicente Fernandez - Personalidad
DYEAR=2003
DGENRE=Ranchero
TTITLE0=Amor Eterno
TTITLE1=Motivos
TTITLE2=Yo quiero ser
TTITLE3=Hermoso cariño
TTITLE4=El Jalisciense
TTITLE5=Volver volver
TTITLE6=Si no te quisiera
TTITLE7=Si acaso vuelves
TTITLE8=Que te vaya bonito
TTITLE9=El tahur
TTITLE10=Por tu maldito amor
TTITLE11=De un rancho a otro
TTITLE12=De que manera te olvido
TTITLE13=Aprendiste a volar
TTITLE14=Que sepan todos
TTITLE15=El cuatrero
TTITLE16=Marioneta
TTITLE17=El Tapatio
TTITLE18=Las llaves de mi alma
TTITLE19=Mujeres Divinas
EXTD=YEAR: 2003
EXTT0=
EXTT1=
EXTT2=
EXTT3=
EXTT4=
EXTT5=
EXTT6=
EXTT7=
EXTT8=
EXTT9=
EXTT10=
EXTT11=
EXTT12=
EXTT13=
EXTT14=
EXTT15=
EXTT16=
EXTT17=
EXTT18=
EXTT19=
PLAYORDER=
